/* XPM */
static char *fa9544cf7b08487caed8d52cd187fbf9IHFe6cknlyDqwIgd[] = {
/* columns rows colors chars-per-pixel */
"64 64 134 2 ",
"   c #1F1F1F",
".  c #201E1F",
"X  c #1E231F",
"o  c #20211F",
"O  c #1F1E21",
"+  c #00003E",
"@  c #211F20",
"#  c #1F2120",
"$  c #202020",
"%  c #2C2C2C",
"&  c #363636",
"*  c #383637",
"=  c #373936",
"-  c #383937",
";  c #373739",
":  c #393738",
">  c #373938",
",  c #383838",
"<  c #40413F",
"1  c #000040",
"2  c #01004C",
"3  c #000056",
"4  c #000058",
"5  c #000064",
"6  c #00006E",
"7  c #000070",
"8  c #00007C",
"9  c #413F40",
"0  c #3F4140",
"q  c #424242",
"w  c #484647",
"e  c #464A47",
"r  c #484946",
"t  c #474749",
"y  c #494748",
"u  c #474948",
"i  c #484848",
"p  c #545454",
"a  c #5C5D5C",
"s  c #656567",
"d  c #646464",
"f  c #646564",
"g  c #000085",
"h  c #000086",
"j  c #000186",
"k  c #000087",
"l  c #010187",
"z  c #020087",
"x  c #000287",
"c  c #000087",
"v  c #010088",
"b  c #000188",
"n  c #020088",
"m  c #020189",
"M  c #030189",
"N  c #000388",
"B  c #000289",
"V  c #020288",
"C  c #01008A",
"Z  c #00018A",
"A  c #02008A",
"S  c #02018B",
"D  c #010489",
"F  c #01038C",
"G  c #010088",
"H  c #000096",
"J  c #000097",
"K  c #000096",
"L  c #000098",
"P  c #000099",
"I  c #010099",
"U  c #020098",
"Y  c #000098",
"T  c #0000A2",
"R  c #0100A2",
"E  c #0000A3",
"W  c #0100A3",
"Q  c #0001A3",
"!  c #0200A3",
"~  c #0100A4",
"^  c #0001A4",
"/  c #0000A5",
"(  c #0200A4",
")  c #0201A4",
"_  c #0300A5",
"`  c #0201A5",
"'  c #0002A4",
"]  c #0000A6",
"[  c #0100A6",
"{  c #0500A4",
"}  c #0100A4",
"|  c #0000AE",
" . c #0000AF",
".. c #0000B0",
"X. c #0101B1",
"o. c #0200B0",
"O. c #0000B2",
"+. c #0000B8",
"@. c #0000BA",
"#. c #0000BB",
"$. c #0000BC",
"%. c #0100BC",
"&. c #0000BD",
"*. c #0100BD",
"=. c #0100BE",
"-. c #0001BE",
";. c #0000BC",
":. c #0100C6",
">. c #0000C7",
",. c #0200C6",
"<. c #0000C7",
"1. c #0100C8",
"2. c #0200C8",
"3. c #0201C9",
"4. c #0002C9",
"5. c #0000CA",
"6. c #0100CA",
"7. c #0100CA",
"8. c #0000D2",
"9. c #0000D3",
"0. c #0000D4",
"q. c #0000D5",
"w. c #0000D6",
"e. c #0200D6",
"r. c #0000D4",
"t. c #0100E0",
"y. c #0201E1",
"u. c #0100E2",
"i. c #0000EC",
"p. c #0001EC",
"a. c #0101ED",
"s. c #0200EC",
"d. c #0000EE",
"f. c #0000ED",
/* pixels */
"> , , & , , , , - : , - , , * , , , , , ; & , - , & , , , , > - , - : , - : : , - , , , , , , , , , : : , , , & , , , : , , & : ",
"p - p r r r r r p r r r r r r p r , r r r r r r r p p p p p p y r r r r t r r r p p p p p p p r r r r , , , r r p p r r r r r , ",
"- d.d.9.0.0.0.0.0.0.0.0.~ y r p d.d.0.0.0.9.0.0.0.0.0.0.0.9.0.0.0.0.0.0.~ r , p d.d.d.d.y.y.y.y.y.y.0.0.0.0.0.1.1.1.1.$.$.$.~ r ",
"r d.1.....0.v ~ 0.v 1.~ 5 % r p d.$.k $.v $.k $.8 $.H $.L $.8 $.8 $.1.W 7 % r , 0.~ :...1.....:.7 1.8 1...:.v ..~ 8 1.L 1.~ 8 % ",
"r 0.~ 8 ~ v ~ L 7 ~ v 7 5 % u p 0.$.v v ~ v 6 ~ ~ 7 H ~ ~ 7 L ~ 7 ~ L 6 4 % r p 0.~ ~ 8 5 ~ v 6 k ~ 8 v ~ ~ v ~ 8 v ~ 4 ~ 7 5 % ",
"r 0.8 ~ ~ 7 L ~ ~ 7 ~ 4 1 % r p 0.v $.~ v ~ 7 ~ v W 7 ~ 6 v 8 W 7 L 8 7 4 % w r 0.7 ~ 5 v ~ 5 W 7 ~ 8 ~ v ~ 5 ~ L 8 W 8 ~ 7 2 % ",
"r 1.~ 8 v H 8 ~ 7 v ~ 6 1 % r p $.$.v ~ v k L ~ 6 v 6 ~ v 7 L 8 v 6 ~ 7 1 % , r $.7 ~ 8 ~ k 5 ~ 7 7 ~ ~ 7 ~ v ~ ~ 8 ~ 4 W v 2 % ",
"r $.8 ~ ~ 7 ~ L 7 L 6 4 1 % r r $.1.k ~ 6 ~ 7 ~ 7 ~ 7 L v 7 8 ~ 6 L 8 7 4 % ; u $.H W 5 v W 8 v 7 v 8 ~ v ~ 5 ~ 8 v ~ 8 ~ 7 1 % ",
"y $.~ 7 v 4 7 8 4 7 v 7 1 % , p L L 7 7 2 v 7 7 v 7 2 7 v 7 v 7 2 v 6 7 1 % , r $.7 6 4 7 7 2 v 2 7 4 v 2 7 2 v 5 2 7 v 7 v 1 % ",
"r 8 5 5 5 1 1 1 1 1 1 1 1 % , r 8 5 5 4 4 4 4 4 4 4 4 4 1 + 1 1 1 1 1 + 1 % , r v 5 5 5 5 5 5 5 5 5 5 4 4 4 4 4 4 4 4 4 + 1 1 % ",
"r w % % % % % % % % @ O $ % , p r % % % % % o o . $ $ % % $ o @   % % % % % r p , % % % % % % % % % % % $ $ $ @   % % % % % % % ",
"p - > , , r r r r , , , , ; r , r r r y r w r , : - p r u r , , r r y r r r p , r p p p p a f f a p p r r q , < p , p y w r p , ",
"d.0.0.0.$.$.$.$.$.$.$.$.$.$.#.W r p r d.d.0.0.0.0.0.0.:.1.1.1.1.1.1.$.#.$.$.$.$.$.$.#.#.$.$.$.$.$.$.$.$.~ r 0 p d.d.0.0.0.0.0.0.",
"..v v ..L 8 ..8 L v ..5 ..v ~ 1 , r p d.7 ..:.8 #.5 v $.v v 1.L ~ v 8 v ~ k ~ v ~ 8 1.5 :.k L $.1.L 1.~ 1 , r , d.:.8 ..k ..v ..",
"v ~ v ~ 8 v v 5 ~ v 5 v ~ ~ 6 1 % r r 0.| 7 ~ 8 ~ ~ k ~ 5 ~ 6 5 v ~ 8 ~ 8 ~ 5 W ~ v 5 ~ v ~ 7 v ~ 7 ~ 7 + , r p :...8 ~ v 8 ~ L ",
"6 W ~ k L 5 ~ 8 k v L 5 ~ v 7 1 % * r 9.7 ~ v L k v 5 v v 7 ~ v 5 ~ v 8 5 8 v v ~ 4 v 8 ~ 7 ~ 6 ~ ~ 7 7 + % 9 r 1.8 ~ ~ ~ 8 ~ 8 ",
"W v v ~ k 8 8 v 8 ~ L 5 ~ 5 7 + % , r 0.6 ~ ~ 8 ~ 5 v ~ 5 7 W 5 k ~ 8 v 8 W 5 ~ v 4 ~ 5 ~ 7 v 7 ~ 6 ~ 7 + % , r 1...8 ~ 8 ~ L 8 ",
"6 ~ 5 W 7 v 8 L 5 ~ 5 v ~ ~ 7 1 % t p 0...4 ~ 8 ~ v 5 v 4 k 7 5 ~ v 8 4 8 ~ 5 v 4 v W 5 k ~ 7 v ~ 7 ~ 7 1 $ , r ..8 ~ ~ 4 ~ 8 v ",
"7 ..5 7 2 8 7 L 7 L 7 4 L 6 6 + % r p ..~ 7 v 4 7 L 7 v 5 7 v 4 7 L 7 L 5 k 7 v v 4 L 7 7 v 2 7 L 6 v 7 1 O , p ..~ 8 6 4 7 L 7 ",
"1 2 2 2 2 2 2 2 2 2 2 2 2 1 1 1 , r p ~ 5 5 5 5 5 5 5 5 5 5 5 5 5 4 4 4 4 4 4 4 4 4 4 4 4 4 4 4 4 4 4 1 + $ r * ~ 5 1 5 1 1 5 1 ",
"% % % @ % % % $ $ $ % % % $ $ % : r * y , & % % % % % % & & , , & % % % # $ $   o % % % o $ $ $ % % % % % , r p y % % % % % % % ",
"p p r , , u p ; p ; r r , , * & r y p r r y q , q ; , - , r w r p , p r 9 , , & q q r r p q , , q r r u p y p , p q , 0 p r r w ",
"p d.d.0.0.0.9.0.0.0.$.#.#.$.$.#.$.$.$.$.$.$.$.$.#.$.$.~ r p p d.d.0.0.9.0.0.0.0.0.0.0.$.$.$.$.$.$.$.$.$.$.$.$.$.$.$.#.$.$.$.~ r ",
"p d.v ..$.8 $.8 $.8 ..v ..k ..1.v ..v ..v $...5 | :.7 1 , r p d.$.6 0.~ ..v ~ ..v ..L ..8 5 { v 7 v ~ 8 v ~ L v ~ 8 v ~ 4 ~ 1 % ",
", d...v ~ L ~ 8 6 v ~ ~ v L v ~ v 5 ~ 7 ~ v 5 v ~ 6 ..+ % w a 0.$.L ~ 5 ~ 5 v 6 L v 5 ~ 5 v ~ 5 ~ 7 ~ 8 ~ v ~ 5 ~ H 8 ~ 8 7 + % ",
"r #.5 W ~ 6 v 4 ~ 5 ~ 6 ~ v H ~ 5 v ~ 7 v ~ v 5 8 ~ 7 1 % p d 0.$.8 ~ 8 ~ 5 ~ 7 L ~ 8 ~ 8 ~ v 5 ~ 7 7 ~ L 7 L v ~ ~ 8 ~ 4 7 1 % ",
"r $...v ~ 2 ~ 4 7 v ~ v 7 8 ~ 8 v 5 8 ~ 5 ~ v 5 ~ 7 4 1 % p a 9.6 ~ 7 L v 5 v L 7 ~ 5 v 5 v ~ 8 k 7 v 8 ~ v ~ 5 ~ 8 v ~ 8 7 1 % ",
"p $.6 5 ~ 2 k 8 ~ 5 ~ 4 ~ 5 ~ v 5 v ~ v 5 ~ 5 v 8 8 ..1 % w p 0.1.6 ~ 7 ~ v ~ k 6 ~ 5 ~ 4 7 7 2 W 2 W 4 ~ 2 W W v 5 2 7 v 7 1 % ",
"r 1.~ 5 7 7 7 4 7 2 6 7 v 5 v 7 7 v 7 7 5 7 L 7 L 7 7 + % , p 1.~ 7 L 7 v 4 7 7 7 6 5 v 6 v 2 ~ 4 7 ~ 2 7 k 2 W 4 ~ 2 ~ 7 7 1 % ",
"r ~ L 5 5 5 5 5 5 5 5 5 5 5 5 5 5 2 2 2 2 2 2 2 2 2 1 1 % , p W 5 5 5 5 5 5 5 5 5 5 5 5 5 5 4 4 4 4 4 4 4 4 4 4 4 4 1 4 8 4 1 % ",
"r r , % % % % % % % % % % % % % % % % % : : , % % % % % % r r r % % % % % % % % $ $ $ $ $ % - , , % $ $ $ % % % % % % % % % % % ",
"p p p p p r r , r , , , r p d d p p p r r r , , , : q > , q p r r r p , p r p r 9 , q , q r p p r r q , q r t r p & p y r r p * ",
"$.$.$.$.$.$.$.$.$.$.~ r : p 0.0.0.0.0.0.0.0.$.$.$.$.$.#.$.$.$.$.$.$.$.$.$.#.$.~ r p p :.d.0.0.0.0.0.0.9.0.0.$.$.#.$.$.$.$.$.#.$.",
"W ..~ ..L 1.....1.~ 1 , w , 9.~ 5 ~ 7 ~ ~ 5 W v ~ ~ 6 ~ v 5 ~ ~ 5 ~ ~ 7 ~ 8 ~ 1 , r p 0.W 8 ~ 7 ~ ~ 5 ~ 8 v 8 W 7 ~ v ~ 8 ~ 7 ~ ",
"~ 8 v W L ~ 8 ~ k 7 + % r p 0.5 W 8 v W 8 ~ L 7 ~ v v 7 v v ~ v 5 W 7 v ~ 5 ~ + - p p 0.~ 4 ~ 7 ~ v 5 ~ v ~ 8 k v L 6 L 8 L v 7 ",
"v 8 ~ L 8 ~ 8 L ~ 7 1 % r & 0.5 ~ W 8 L W 7 ~ 7 ~ k W 4 ~ 2 v v ~ k 6 H W 8 ~ + & p d 0.~ 8 ~ 6 ~ v ~ v ~ ~ 8 ~ 7 L v ~ L 8 ~ 7 ",
"~ v 8 ~ L W L 8 v 7 1 , r p 0.L 5 ~ 8 ~ 8 4 H k v v 7 v ~ 5 ~ v 5 v L 7 v W 8 1 , p d 9.8 ~ ~ 6 ~ 5 ~ ~ 8 8 ~ 8 ~ v L L v 8 7 v ",
"~ v 8 ~ 8 ~ 8 L ~ 7 1 = w r 0.5 ~ 8 4 L ~ 6 v v ~ v ~ 7 v 2 5 L 5 ~ L 7 ~ 8 W + & u p 1.~ 8 ~ ~ 7 ~ D k 8 ~ 8 ~ 7 L v ~ 8 v ~ 6 ",
"7 7 v H 7 7 L 7 7 7 + , r r L 5 ~ ~ 4 ~ 8 7 ~ 7 ~ 5 ~ 4 v 5 ~ v 5 L 6 L ~ 5 8 1 % r p 1.W 4 ~ 7 ~ ~ v ~ v ~ 8 W 6 L 7 L 8 ~ ~ 6 ",
"+ 1 2 2 2 2 2 2 2 + + % r r ~ 5 5 5 5 5 5 5 5 5 4 4 4 4 4 4 4 4 4 4 4 4 4 4 1 1 % r y ~ 5 5 5 5 5 5 5 5 5 5 5 5 5 5 5 4 4 4 4 1 ",
"% % % % % % % % % % % % r p r % . $ @ $ % % , - , % @ $ $ $ o % % % % % % % % % ; r r r % % % % , - r & % % $ $ @ % % % % % % % ",
"p w p , r , , r y , , - & r r , & , r r r e e p p r r & : , p y r t p , w , r - r w p r p & p r p a d p i r r , p r p r p , p > ",
"- d.0.0.0.0.0.0.9.$.$.$.$.$.$.$.$.$.#.$.$.$.$.$.$.$.$.$.$.$.$.~ , p ; d.d.0.0.0.0.0.0.0.0.$.#.$.$.$.$.#.$.$.$.$.$.#.$.#.$.$.W r ",
"p 9.~ v v ~ 5 ~ ~ 8 L W 8 ~ 7 k ~ 5 W 8 ~ v W 5 ~ 5 ~ ~ 8 6 ~ 1 : r p d.~ ~ 5 ~ 5 ~ 4 W 7 ~ 4 ~ v 4 L v 7 ~ v 8 ~ 8 H 6 v ~ 1 % ",
"r 0.~ 5 ~ v 5 ~ v L 8 ~ 5 v 4 ~ L 5 ~ 4 v L v 5 ~ 8 ~ 8 W 7 L + % r r 0.v ~ 5 v 5 8 4 v 4 L 8 ~ 4 ~ 5 ~ 7 v 7 ~ v 8 L ~ 5 v 1 % ",
"r 0.v 5 ~ 5 v 7 5 W 5 W v 8 v W 5 L v F 4 8 ~ 2 L 4 v 5 v v 7 + % , r 0.v ~ 5 5 v ~ 8 4 ~ 8 4 L ~ 4 W 7 7 ~ 7 ~ 8 ~ 7 k 5 ~ + % ",
": 0.~ v ~ v 5 W v 8 L ~ 8 ~ 4 v ~ 5 ~ 4 v ~ 4 L ~ 8 ~ ~ ~ 6 8 1 % , r 0.W 5 ~ v 5 ~ 4 ~ 7 H 8 8 4 k 5 ~ 8 v H v L 8 7 ~ v ~ 1 % ",
"p 0.~ 5 v ~ 5 ~ 5 ~ 5 ~ 5 ~ 6 ~ 5 5 W 4 v 8 W 8 v 5 L 5 v 7 ~ 1 $ > p 0.~ 5 5 ~ 5 8 4 ~ 4 ~ 4 L 4 ~ 5 k 7 ~ 7 8 W 8 L v 5 7 1 % ",
"- 1.~ 5 ~ 5 k 7 v H 8 ~ v v v ~ L 5 k 8 4 5 ~ 2 ~ 7 L 8 ~ 7 ~ + $ , p :.7 ~ 5 v 5 ~ 4 8 ~ 8 4 L 7 v 5 ~ 7 ~ 7 ~ 8 L 7 ~ 5 ~ 1 % ",
"p ~ 5 5 5 5 5 5 5 5 5 2 2 2 2 2 2 2 2 2 2 2 2 2 2 2 2 2 2 2 2 + % r p ~ 5 5 5 5 5 5 5 5 5 4 4 4 4 4 2 2 2 2 2 2 2 2 2 2 2 1 1 % ",
"= r % % % % % % % % % % , & - % $ o o $ % % % O $ $ @ % % O   % % r , y % % % % % % $ @ $ % & , & % $ % % % % o X . % % % % % % ",
"p , p , p t p r w r w p d d p r p , p w p r q , , , q r p r r * y r p , p r r r r r y w y i p p p i r r r r : % o $ & - y r p y ",
"0.0.0.0.9.$.$.#.$.$.$.$.#.$.$.$.$.~ w p y d.d.0.0.0.0.0.9.0.0.$.$.$.$.$.$.$.$.$.$.$.$.$.$.$.~ r , p d.0.9.0.0.0.$.$.#.$.$.$.$.$.",
"8 ~ 4 ~ ~ 5 H 5 ~ 8 1.8 ~ 5 W 8 ~ 1 % r r 0.~ ~ ~ ~ 5 ~ 2 ~ 8 ~ 5 W 5 ~ L ~ 5 ~ 5 ~ 4 ~ 7 5 1 , r p 9.~ 5 v ~ 4 ~ 7 ~ 7 ~ 5 ~ 7 ",
"~ 8 8 ~ 8 ~ 5 L 8 5 ~ 4 8 5 v 5 v 1 % r r 0.8 ~ 7 ~ 5 7 2 8 L 8 ~ v 5 v L 5 8 v 7 v 4 ~ 5 ~ 1 & e p 0.5 ~ 4 ~ 7 W 6 v ~ 6 W v 2 ",
"~ 8 4 8 ~ 5 L 5 8 ~ 8 4 ~ v 5 L 8 1 % y q 0.8 8 7 ~ 5 8 8 W 4 ~ 2 ~ ~ 5 ~ 5 ~ 5 v 4 v k 5 7 1 % r p 0.5 ~ 7 6 ~ ~ v 7 v 7 5 7 v ",
"8 L 4 L 5 5 ~ 5 ~ 8 ~ 4 8 7 5 ~ 5 + % r < 0.~ 2 6 ~ 5 ~ 2 W 8 H 5 ~ 5 v 8 5 ~ 5 ~ v 4 7 L 5 + % t p 0.W 5 4 ~ v 7 7 ~ 7 ~ 5 7 ~ ",
"5 ~ 8 ~ 5 ~ 5 v ~ 5 ~ 8 4 v ~ 8 v 1 % r 9 0.2 ~ ~ 5 ~ 8 6 k 4 8 2 ~ 5 ~ 5 8 8 5 v 7 4 v 7 5 1 % r r 0.5 ~ v ~ 7 ~ v 6 7 4 ~ 7 ~ ",
"5 ~ 8 8 5 L L 5 L 5 8 4 ~ 5 ~ 5 L 1 % t r 0.2 ~ 6 ~ 5 8 8 v 2 L 5 k 2 ~ 8 5 ~ v 5 ~ 4 W 4 v 1 % > w 0.5 ~ 4 6 4 ~ 7 ~ 7 4 5 ~ 2 ",
"8 L 4 ~ 5 5 v 5 8 8 ~ 4 ~ 5 7 v 8 1 % y p 1.~ 2 7 ~ 5 ~ 2 v 5 ~ 5 ~ 7 5 ~ 5 8 ~ 5 v 7 v 5 k 1 % , r 1.5 5 4 ~ 4 ~ 7 W 7 ~ 5 ~ 7 ",
"2 2 2 2 2 2 2 2 2 2 2 2 2 2 2 2 1 1 % r r ~ 1 1 + 1 1 2 2 2 2 2 2 2 2 2 2 2 2 2 2 2 2 2 2 1 + $ r p W + 1 2 2 2 2 2 2 2 2 2 2 2 ",
"% % % % % % % % % % % % % % % % % % % r p r , & & % % % % % % % % % % % % % % $ $ $ $   % $ $ $ : r y % % % % % % $ $ $ $ $ % % ",
", p , p , ; > r r r r r p p * r r r r p p p p p r r r p r r u p w r : r r w q , , q , , q w q > q p r w , p r r r y q & q r r r ",
"p p p p p p p p p p p p p p p p p p p p p p p p p p p p p p p p p p p p p p p p p p p p p p p p p p p p p p p p p p p p p p p p "
};
