/* XPM */
static char *_ea9239992f54c45ad24b9e2e96e5a0eclqWf9tVKMzOTQOv[] = {
/* columns rows colors chars-per-pixel */
"64 64 129 2 ",
"   c #1F1F1F",
".  c #3F001F",
"X  c #201F1E",
"o  c #1F211E",
"O  c #20201E",
"+  c #3F0121",
"@  c #211F21",
"#  c #1F2120",
"$  c #202020",
"%  c #2C2B27",
"&  c #2C2C2C",
"*  c #2C2B30",
"=  c #363636",
"-  c #383735",
";  c #373936",
":  c #383836",
">  c #373739",
",  c #393738",
"<  c #373938",
"1  c #383838",
"2  c #40011F",
"3  c #400120",
"4  c #4C0026",
"5  c #4E0228",
"6  c #57002B",
"7  c #58002B",
"8  c #63002F",
"9  c #630031",
"0  c #6F0036",
"q  c #700037",
"w  c #710038",
"e  c #7C003E",
"r  c #3F413E",
"t  c #40403E",
"y  c #7E0140",
"u  c #413F40",
"i  c #3F4140",
"p  c #434343",
"a  c #484745",
"s  c #474946",
"d  c #484846",
"f  c #474749",
"g  c #494748",
"h  c #474948",
"j  c #484848",
"k  c #545454",
"l  c #555558",
"z  c #5C5C5D",
"x  c #646464",
"c  c #870042",
"v  c #880043",
"b  c #880048",
"n  c #97004A",
"m  c #99014C",
"M  c #98004D",
"N  c #98004B",
"B  c #A2004E",
"V  c #A3004F",
"C  c #A2014F",
"Z  c #A5004D",
"A  c #A5004F",
"S  c #A3004F",
"D  c #A20050",
"F  c #A30051",
"G  c #A20151",
"H  c #A20052",
"J  c #A30053",
"K  c #A40150",
"L  c #A50051",
"P  c #A40152",
"I  c #A60052",
"U  c #A70052",
"Y  c #A40154",
"T  c #A60054",
"R  c #A40051",
"E  c #B10156",
"W  c #B10058",
"Q  c #B20159",
"!  c #B1005A",
"~  c #B2015B",
"^  c #B10058",
"/  c #B9005B",
"(  c #BB005B",
")  c #B9005D",
"_  c #BA015C",
"`  c #BB005D",
"'  c #BA015E",
"]  c #BC015C",
"[  c #BC005E",
"{  c #BD005E",
"}  c #BC005F",
"|  c #BD015F",
" . c #BE015F",
".. c #BC005E",
"X. c #BD0160",
"o. c #BD0160",
"O. c #C70163",
"+. c #C80062",
"@. c #C90062",
"#. c #C80063",
"$. c #C90063",
"%. c #C90164",
"&. c #C80065",
"*. c #CA0064",
"=. c #CC0064",
"-. c #C90064",
";. c #D30067",
":. c #D30067",
">. c #D20068",
",. c #D30069",
"<. c #D2006B",
"1. c #D3006B",
"2. c #D40069",
"3. c #D5006A",
"4. c #D4016A",
"5. c #D5006C",
"6. c #D30069",
"7. c #E00070",
"8. c #E00072",
"9. c #EA0073",
"0. c #EA0174",
"q. c #EB0076",
"w. c #EB0077",
"e. c #ED0076",
"r. c #EC0177",
"t. c #EE0177",
"y. c #EC0076",
"u. c #EE0078",
"i. c #EC0178",
/* pixels */
", = 1 - 1 1 = 1 ; = 1 1 , 1 = 1 1 1 1 1 1 1 , 1 1 = 1 < 1 1 1 1 1 1 1 1 1 ; ; 1 1 1 1 1 1 1 = 1 1 1 < 1 1 1 1 - 1 1 1 1 1 1 1 ; ",
"k > k j j j j j k j j j j j j k j 1 d j j j j h g k k k k k k s j h j j g j j j k k k k k k k j j d j 1 1 1 j j k k j j j j j 1 ",
"< q.q.,.,.,.,.,.,.,.,.,.G j g k q.r.,.,.3.,.,.,.,.,.,.,.,.;.,.,.,.;.3.,.G j < k q.q.r.q.7.7.7.7.7.7.,.,.,.,.3.#.#.#.#.[ [ ` G d ",
"j r.#.W W ,.v G ,.v O.G 9 & j k q.[ c [ v [ c [ e [ N [ N [ e [ e [ #.G w & j 1 ,.G #.W #.E W #.w #.e #.W &.v W G e &.M &.G e & ",
"j ,.G e G v V N w P v w 9 & j k ,.[ v v G v w G G w N G G w N P w G N 0 7 & j k ,.G G e 9 G v w c G e c G G v G e v P 6 G w 9 & ",
"j 3.e G V w N G G w G 7 3 & g k ,.v [ G v G q P v G w G w v e G w N e w 7 & j j ,.w G 9 v G 9 P w P e P b G 9 P N e P e G w 4 & ",
"j #.P e v n e G w v G w 3 & j k ` [ v G b v N G 0 v w G v w N e c 0 G w 3 & 1 j [ w T e G c 9 P q w G G w V v G P e G 7 V v 4 % ",
"j [ e G T q P N w N w 6 3 & j j [ &.v G w G w G w G w N v w e P w N e w 7 & , j [ n V 9 c G e c w v e P v G 9 V y v G e G w 3 & ",
"j [ V q v 7 w e 7 w v w 3 & 1 k N N w w 4 v w w v w 4 w v w v w 4 v q w . & 1 j [ q w 6 w w 4 v 4 w 7 v 4 w 4 v 9 4 q v w v 3 & ",
"j e 9 9 9 3 3 + 3 3 + 3 3 & : j e 9 9 7 7 7 6 7 7 7 7 7 3 . 3 3 3 3 3 . 3 & 1 j v 9 9 9 9 9 9 9 9 9 9 7 7 7 7 6 7 7 7 7 3 3 3 & ",
"j a % & & & & & & & o X $ & 1 k j & & & & & $ $ X $ $ & & $ $ o   & & & & & j k 1 & & & & % % & & & & & $   $ o $ & & & & & & & ",
"k 1 1 1 ; j j d g 1 1 1 = , j 1 j j j j j a d 1 ; > k j j d = 1 s j h d j j k 1 j k k k k z x x z k k g j p = p k 1 k j a j k 1 ",
"q.;.3.3.[ [ [ [ [ [ [ [ [ [ [ V j k j q.r.,.,.,.,.3.,.#.#.#.&.#.#.#.` ( [ [ [ [ [ [ ` [ [ [ [ [ ( [ [ [ G j i k r.r.,.,.,.,.;.,.",
"W v v W N e W e N v W 9 W v P . 1 g k u.w W #.e ` 9 v [ v v #.M G c e v G c G v G e =.9 #.v M [ #.N #.P + 1 g = q.#.e W v W v W ",
"v P v G e v v 9 G v 8 v P G 0 3 & j j ,.W w P e G G v G 9 P 0 9 v G e G e G 9 V G v 9 G v G w v G w V q 3 , j k #.W e G v e G n ",
"w V V v N 9 P e c v N 9 G v w 3 & - j ;.w G v N v v 9 c v w G v 8 G v e 9 e v v P 7 v e G w P w G V w w 3 & r j #.e G G P e G e ",
"G v v G c e e v e G M 8 G 9 w . & : j ,.w G G e G 9 v G 9 w V 9 v G e v e G 9 G v 7 G 9 P w v w P w G w . & 1 j #.W e G e G N e ",
"0 G 9 G w v e N 9 G 9 v P G q 3 & g k ,.W 7 G e P v 9 v 7 c w 9 P v e 6 e G 9 v 6 v G 9 c G w v G w P w 3 $ 1 j W e G G 7 G e v ",
"w W 9 w 4 e w N w N w 7 M q 0 . & j k W G w v 7 w N q v 9 w v 6 w M q M 8 c w v v 7 N w w v 4 w N 0 v w 3   p k W P e w 7 w N w ",
"3 4 4 4 4 4 4 4 4 4 4 4 4 3 3 3 1 j k G 9 9 9 9 9 9 9 9 9 9 9 9 9 7 7 6 6 7 7 7 7 7 7 7 7 7 7 7 7 7 7 3 3 $ j - G 9 3 9 3 3 9 3 ",
"& & & O & & & O   $ & & & O $ & - j - s 1 = & & & % & & = = 1 1 = & & & $ @ $ $ @ & & & $ $ $ $ & & & & % 1 j k a & & & & & & & ",
"k k j : 1 h k , k , j h 1 1 = 1 d s k d h d p 1 p , 1 1 p j j j k 1 k j p 1 1 = p p j j k p 1 1 p j j j k s k 1 k p 1 p k f j a ",
"k q.q.,.3.,.;.,.;.,.[ ` ( ` [ [ [ [ [ [ [ [ [ ` [ [ [ G j k k q.q.5.3.,.,.,.,.,.,.,.,.` [ [ [ ` [ [ [ [ [ [ [ ` [ [ ` [ [ ( G j ",
"k 9.v W [ e [ e [ e W v W c W #.v W v W v [ W 9 W #.w 3 1 j k r.[ q 3.G W c G W v W M W e 9 A v w v P e v G N v G e v G 7 T 3 & ",
"= q.W v P N G e 0 c P G v M v V v 9 G w G v 9 v G 0 W 3 & a z ,.[ N G 9 G 9 v 0 N v 9 P 8 v G 9 P w G e G v P 9 G N e G y w . & ",
"j X.9 A G 0 v 7 P 9 V 0 G v N G 9 v G q v G v 9 e G w 3 & k x ,.[ e G e P 9 G q N P y G e P v 9 G w w V n w N v G G e P 7 w 3 & ",
"d [ W v P 4 P 7 w v G v w e G e v 8 e P 9 P v 9 G w 7 3 & k z ;.w V w N v 8 v N q G 9 v 9 v G e v w v e G v G 9 P e v G e w 3 & ",
"k [ 0 9 G 4 c e G 9 G 6 P 9 T v 9 v T v 9 G 9 v e e W 3 & a k ,.#.0 G w P v G c 0 G 9 G 7 w w 4 V 4 G 6 P 4 G V v 9 4 w v w 3 & ",
"j #.P 9 w w w 7 w 4 w w v 9 v w w v w w 9 q N w M w w . & 1 k #.P w N w v 7 w w w w 9 v 0 v 4 P 7 w G 4 w c 4 G 7 G 4 G w w 3 & ",
"d G n 9 9 9 9 9 9 9 9 9 9 9 9 9 9 4 4 4 4 4 4 4 4 4 3 3 & 1 k V 9 8 9 9 9 9 9 9 9 9 9 9 9 9 7 7 7 7 7 6 7 7 7 7 7 7 3 7 e 7 3 & ",
"j j 1 & & * & & & & % & & & & & & & & & : ; : & & & & & & j j d & & & & & & & &   $ $ $ $ & 1 1 1 & $ $ $ & & & & & & & & & & & ",
"k k k k k j j 1 j 1 = 1 j k x x k k k j j j 1 p 1 ; p 1 1 u k j j j k 1 k j k j r < p 1 p j k k j j p 1 p j g j k = k j j j k ; ",
"[ [ [ [ [ [ [ [ [ [ T j < k 3.3.3.,.;.,.,.,.[ [ [ [ [ [ [ [ [ [ [ ` [ [ [ ` [ G d k k #.q.,.,.3.,.,.3.,.3.,.[ [ [ [ [ [ [ [ [ [ ",
"V W G W N #.W W #.G 3 1 d 1 ;.P 9 G w G G 9 V v G G 0 G v 8 P P 9 G G w G e G 3 1 j k ,.G e V w G G 9 G e v e V w G v P e G q G ",
"P e v G N G e G c w 3 & j k 3.8 G e v G e G N w G v v w v v P v 9 V w v G 9 G 3 1 k l ,.P 7 G w G v 9 P v G e c v N q N e N v w ",
"v e G N e G e M G w 3 & j ; ,.9 G V e N G w V w P c G 7 G 4 v v P v 0 N V e P . = k x ,.P e G w G v G v V G e G w N v G n e G w ",
"G v e G M V N e v w 3 1 g k 3.N 8 P e G e 6 N v v v w v G 9 G v 9 v N w v P e 3 1 k x ;.e P P 0 G 9 P G e e G e P v N N v e w v ",
"P v e G e G e N P w 3 , j d ,.9 G e 7 N G w v c G v G w v 4 9 N 8 G N w P e A . 1 j k #.G e P P q G v v e P e G w N v G e v V 0 ",
"w w v N w w M w w w . 1 j j N 9 P G 7 G e w G w G 9 G 7 v 9 G v 9 M 0 M G 9 e 3 & g k #.G 6 G q G G v G v V e V w N w N e G G 0 ",
"3 3 4 4 4 4 4 4 4 3 3 & j j G 9 9 9 9 9 9 9 9 9 7 6 7 7 6 7 7 7 7 7 7 7 7 6 3 3 & g d G 9 9 9 9 9 9 9 9 9 9 9 9 9 9 9 7 7 7 7 3 ",
"& % & & & & & & & & & & j k j & X $ $ $ & & 1 1 1 & o $ $ $ $ & & & & & & & & & , j j d & & & & ; 1 g - & & o $ o & & & & & & % ",
"k d k 1 j 1 1 j j < = 1 = j j 1 1 1 j j h g j k k j j = : 1 k d j g k ; a = j 1 j d k j k = k j k z x k j j j 1 k j k j k : k 1 ",
"1 q.,.,.3.,.3.,.,.[ [ [ [ [ [ [ [ [ [ [ [ [ [ [ [ X.` [ [ [ [ G 1 k , u.u.,.,.,.,.,.3.,.,.` ( [ [ [ [ [ [ [ [ [ [ ( [ ( [ [ V j ",
"k ,.G v v P 9 P T e N G e G q v G 9 V e G v G 9 P 9 G G e w G 3 1 j k q.G G 9 G 9 G 7 G q G 7 G v 7 M v q G v e G e M 0 v G + & ",
"j ,.G 9 G v 9 G v N e G 9 v 6 P N 9 P 7 v N v 9 G e G e P w N 3 & j j ,.v G 9 v 9 e 7 v 7 M e G 7 P 9 G w v w G v e M G 9 v 3 & ",
"j ,.v 9 G 9 v q 9 G 9 A v e v V 9 n v v 7 e G 4 N 7 v 9 v v w . % 1 j ,.v G 8 9 v P e 6 G e 7 N G 7 V w q G w G e P w c 9 G 3 & ",
": ,.G v G v 9 G v e N G e G 7 v G 9 G 7 v G 6 N P e P G G w e 3 & 1 j ,.V 9 P v 8 P 7 G w N e e 7 c 9 G e v n v N e w G v T 3 & ",
"k ,.G 9 v G 9 P 9 P 9 G 9 G 0 G 9 9 G 7 v e G e v 9 N 9 v w G 2 O , k ,.G 9 8 G 9 e 6 G 7 G 6 N 7 P 9 v w G q e G e N v 9 w 3 & ",
"; &.P 9 P 9 c w v n e G v v v G N 9 v e 7 9 G 4 G w N e P w G .   = k &.w P 9 v 9 G 7 e P e 6 N w v 8 V w G w G e N w G 9 G 3 & ",
"k G 9 9 8 9 9 9 9 9 9 4 5 4 4 4 4 4 4 4 4 4 4 4 4 4 4 4 4 4 4 . & j k G 9 9 8 9 9 9 9 9 9 6 7 7 7 7 4 4 4 4 4 4 4 4 4 4 4 3 3 & ",
"1 j & & % & & & & & & & 1 1 1 & $ $ @   & & & @ $ O o & & @   & & d 1 s & & & & & & @ o $ & = 1 = & # & & & & $ $ X & & & & & & ",
"k 1 k 1 k g k j a j a k x x k j k 1 l j k j p 1 1 1 p d k j j - g j k 1 k j j j j j d d s j k k k j j j j j : & $ $ & , j j k j ",
",.3.3.,.;.[ ` [ [ [ [ [ ` [ [ [ [ G d k d r.q.3.,.3.3.,.;.,.,.[ [ ` [ [ [ [ [ [ [ [ [ [ ` [ G j 1 k r.3.,.3.,.,.[ [ ( ` [ [ ` [ ",
"e P 7 G P 9 n 9 G e &.e G 9 G e G 3 & j j ,.G P G G 9 P 4 G e G 8 V 8 G N G 9 G 9 G 7 P w 9 3 1 j k ,.G 9 v G 6 G w P w G 9 P w ",
"G e e G e G 9 N e 9 G 7 e 9 v 8 v 3 & j j ,.e G q P 9 w 4 e N e P v 9 v N 9 e v w v 7 G 9 G 3 = f k ,.9 P 7 G w V 0 v P q G v 4 ",
"G e 7 e G 8 M 9 e G e 7 G v 9 M e . & a p ;.e e w G 9 e e G 7 P 4 G G 9 G 9 G 9 v 7 v v 9 w 3 & j k 3.9 G w w G G v w v q 9 w v ",
"e N 7 N 9 9 G 8 G e P 7 e w 9 P 9 3 & j p 3.P 4 0 G 9 G 4 V e N 9 G 9 v e 9 G 9 P v 7 w N 9 3 & g k ,.P 9 7 P v w w P w G 9 w G ",
"9 G e P 9 G 9 v G 9 P e 7 v P e v 3 % j t ,.4 G P 9 G e 0 v 6 e 4 G 9 P 9 e e 8 v w 7 v q 9 3 & j j ,.9 G v G w G v w w 7 G w G ",
"9 P e e 8 N M 9 N 8 e 7 G 9 P 9 N 3 & g j ,.4 G 0 G 9 e e b 4 N 9 v 4 P e 9 P v 9 G 7 G 7 v 3 & 1 d ,.9 P 6 w 7 G w G w 7 9 P 4 ",
"e N 7 G 9 9 v 9 e e P 7 G 9 w v e 3 & s k &.P 4 w G 9 G 4 v 9 P 9 G w 9 G 9 y G 9 v w v 9 v 3 & 1 d &.9 9 7 P 7 P w V q G 9 G w ",
"4 4 4 4 4 4 4 4 4 4 4 4 4 4 4 4 3 3 & j j G 3 3 . 3 3 4 4 4 4 4 4 4 4 4 4 4 4 4 4 4 4 4 4 3 3 $ j k V 2 3 4 4 4 4 4 4 4 4 4 4 4 ",
"& & & & & & & & & & & & & & & & % & & j k s 1 = = & & & & & & & & & & & & & & @ $ $ $ $ & $ $ $ ; j h & & & & & & $ O $ @ $ & & ",
"1 k 1 k , , 1 h j h j j k k - j j j j k k k k k g j j k j h g k d j ; j j a p 1 1 p 1 = p a p > t k j d 1 k d j g d p 1 p g j j ",
"k k k k k k k k k k k k k k k k k k k k k k k k k k k k k k k k k k k k k k k k k k k k k k k k k k k k k k k k k k k k k k k k "
};
