/* XPM */
static char *e1e8aff4d60844afcce4b95cc1ef4597E3Au3stzrtdXch8W[] = {
/* columns rows colors chars-per-pixel */
"64 64 240 2 ",
"   c gray12",
".  c #3F0000",
"X  c #3E0100",
"o  c #3E0001",
"O  c #3F0201",
"+  c #201E1F",
"@  c #1E201F",
"#  c #20201E",
"$  c #211F20",
"%  c #211F22",
"&  c #1D2120",
"*  c #1F2120",
"=  c #1F2022",
"-  c #202020",
";  c gray13",
":  c #202022",
">  c #2B2B29",
",  c gray17",
"<  c #2C2A2B",
"1  c #2B2D2A",
"2  c #2A2C2B",
"3  c #2C2C2A",
"4  c #2D2D2B",
"5  c #2A2B2D",
"6  c #2D2B2C",
"7  c #2B2D2C",
"8  c #2B2C2E",
"9  c #2C2C2C",
"0  c #2D2D2D",
"q  c #2E2C2D",
"w  c #2C2E2D",
"e  c #2C2C2E",
"r  c #2D2D2F",
"t  c gray18",
"y  c #2F2F2F",
"u  c gray19",
"i  c gray20",
"p  c #343434",
"a  c #373735",
"s  c #373737",
"d  c #363837",
"f  c #383836",
"g  c #373739",
"h  c #393738",
"j  c #373938",
"k  c #37383A",
"l  c gray22",
"z  c #393939",
"x  c #383A39",
"c  c #38383A",
"v  c #39393B",
"b  c #3F3F3F",
"n  c #400000",
"m  c #410000",
"M  c #400001",
"N  c #410101",
"B  c #410102",
"V  c #480100",
"C  c #4A0000",
"Z  c #4B0000",
"A  c #4B0100",
"S  c #4A0001",
"D  c #4B0001",
"F  c #4B0102",
"G  c #4C0000",
"H  c #4D0101",
"J  c #4E0000",
"K  c #4C0002",
"L  c #4E0002",
"P  c #540000",
"I  c #550000",
"U  c #560000",
"Y  c #570000",
"T  c #570100",
"R  c #560001",
"E  c #540002",
"W  c #580000",
"Q  c #590000",
"!  c #590100",
"~  c #580001",
"^  c #590001",
"/  c #5A0000",
"(  c #620000",
")  c #630000",
"_  c #630100",
"`  c #620001",
"'  c #630001",
"]  c #630102",
"[  c #640000",
"{  c #650000",
"}  c #650101",
"|  c #660000",
" . c #640201",
".. c #640002",
"X. c #660002",
"o. c #6D0000",
"O. c #6D0101",
"+. c #6E0000",
"@. c #6F0000",
"#. c #6E0001",
"$. c #6F0301",
"%. c #700000",
"&. c #710000",
"*. c #710100",
"=. c #700001",
"-. c #710001",
";. c #720000",
":. c #710002",
">. c #790100",
",. c #7A0000",
"<. c #7B0000",
"1. c #7B0100",
"2. c #7B0002",
"3. c #7C0000",
"4. c #7D0000",
"5. c #7D0101",
"6. c #7C0201",
"7. c #7C0002",
"8. c #7D0103",
"9. c #3E403D",
"0. c #40403E",
"q. c #3F4140",
"w. c gray25",
"e. c #404042",
"r. c #474745",
"t. c gray28",
"y. c #474946",
"u. c #484846",
"i. c #494846",
"p. c #494947",
"a. c #494748",
"s. c #474948",
"d. c #484848",
"f. c #494949",
"g. c #4A4849",
"h. c #484A49",
"j. c #48484A",
"k. c #494B4A",
"l. c #4C4C4C",
"z. c #535353",
"x. c #535552",
"c. c #545452",
"v. c #555452",
"b. c #555354",
"n. c #515554",
"m. c #535554",
"M. c #535456",
"N. c gray33",
"B. c #555555",
"V. c #565455",
"C. c #545655",
"Z. c #545456",
"A. c #545557",
"S. c #555557",
"D. c gray36",
"F. c #5C5C5E",
"G. c #656364",
"H. c #656366",
"J. c #636564",
"K. c #646464",
"L. c #646466",
"P. c #860000",
"I. c #870000",
"U. c #870100",
"Y. c #860001",
"T. c #870001",
"R. c #870102",
"E. c #880000",
"W. c #880100",
"Q. c #890101",
"!. c #8A0000",
"~. c #8B0101",
"^. c #890200",
"/. c #880002",
"(. c #890103",
"). c #8A0002",
"_. c #950000",
"`. c #960000",
"'. c #970000",
"]. c #960001",
"[. c #980000",
"{. c #990000",
"}. c #990100",
"|. c #980001",
" X c #990002",
".X c #A20000",
"XX c #A30000",
"oX c #A30100",
"OX c #A30001",
"+X c #A40000",
"@X c #A50000",
"#X c #A50100",
"$X c #A40001",
"%X c #A50001",
"&X c #A60000",
"*X c #A40200",
"=X c #A50102",
"-X c #AF0100",
";X c #B00000",
":X c #B20000",
">X c #B00002",
",X c #B90000",
"<X c #BB0000",
"1X c #BA0100",
"2X c #BA0001",
"3X c #BC0000",
"4X c #BD0000",
"5X c #BD0100",
"6X c #BC0001",
"7X c #BD0001",
"8X c #BE0000",
"9X c #BE0100",
"0X c #BD0102",
"qX c #BE0002",
"wX c #C70000",
"eX c #C70100",
"rX c #C80000",
"tX c #C80100",
"yX c #C90101",
"uX c #CA0000",
"iX c #CB0100",
"pX c #CB0101",
"aX c #D10000",
"sX c #D20000",
"dX c #D30000",
"fX c #D20100",
"gX c #D20001",
"hX c #D40000",
"jX c #D50000",
"kX c #D50100",
"lX c #D40001",
"zX c #D60000",
"xX c #D50002",
"cX c #D60002",
"vX c #E00000",
"bX c #EA0000",
"nX c #EC0000",
"mX c #EC0100",
"MX c #ED0101",
"NX c #EE0000",
/* pixels */
"l l l f l l l l d l l l l l a l l l l l h l l g k g l k l l l k a l l l l k k l l l l l l l l l l l l l l l l a l l l l l l l k ",
"N.l N.j.j.j.j.j.N.j.j.j.j.j.j.b.j.l j.j.j.j.j.j.j.N.N.N.N.N.c.s.j.j.j.j.a.j.j.j.z.N.N.N.N.M.N.j.j.j.j.l l l j.j.N.M.j.j.j.j.j.l ",
"l NXNXhXhXhXhXhXhXhXhXhX+Xj.j.N.NXNXhXhXhXsXhXhXhXhXhXhXhXsXhXhXhXhXhXhX+Xj.l N.NXNXNXNXvXvXvXvXvXvXhXhXhXhXhXwXrXrXrX3X3X3X+Xj.",
"j.NXrX;X;XhXE.XXhXE.rX+X[ 9 j.b.NX3XU.3XE.<XU.3X1.3X'.3X[.3X3.3X3.3XrX+X*.7 j.l hX+XrX;XrX;X;XrX*.rX3.rX;XrXE.;X+X1.rX[.rX+X3.9 ",
"j.hX+X3.XXE.+X[.*.+XE.*.[ 9 j.N.hX3XE.E.+XE.*.+X+X*.'.+XXX*.[.+X+.+X[.+.W 9 j.N.hX+X+X3.[ +XE.*.U.+X3.E.+X+XE.XX3.E.+XW +X*.[ 9 ",
"j.hX1.+X+X*.'.+X+X*.+XW n 9 j.N.hXE.3X+XE.+X*.+XE.+X*.+X*.E.3.+X*.[.3.*.W < j.j.hX*.+X[ E.+X) +X*.+X3.+XE.+X[ +X[.3.+X3.+X*.G 9 ",
"j.rX+X1.E.'.3.+X*.E.+X*.n 9 j.N.3X3XE.XXE.E.[.+X+.E.*.+XE.*.[.3.E.+.+X*.n 9 l j.3X*.+X3.+XU.[ +X*.*.+X+X*.XXE.+X+X3.+XW XXE.G , ",
"j.3X3.+X+X+.+X[.*.[.*.U n 9 j.j.3XrXE.+X*.+X*.+X*.+X*.[.E.*.3.+X*.[.3.*.W , h j.3X'.XX) U.+X3.E.*.E.3.+XE.+X[ +X3.E.+X3.XX*.n 9 ",
"j.3X+X*.E.W +.3.W *.E.*.n 9 l N.[.[.*.*.G E.*.*.E.*.S *.E.*.E.*.G E.*.*.n 9 l j.3X*.*.U *.*.G E.G *.W E.S *.G E.[ G *.E.*.E.n 7 ",
"s.3.[ [ [ n n n n n n n n 9 l j.1.[ [ W W W U W W W W W n X n n n n n X n 9 l j.E.[ [ [ [ [ [ ) ) [ [ W W W W W W W W W n n n 9 ",
"j.u.3 9 9 9 9 9 9 9 * + * 9 l b.j.9 9 9 9 9 - - # - - 9 , - - *   9 9 9 1 9 j.N.l 9 9 9 9 3 3 7 9 9 , 9 - - - * - 9 9 9 , 9 9 3 ",
"N.l l l l j.j.j.j.l l l l h j.l s.j.j.j.j.y.j.l k l N.j.j.j.l l j.s.s.j.j.j.M.l j.N.N.z.M.D.K.K.D.N.N.j.j.w.l w.c.l N.j.u.j.M.l ",
"NXsXhXhX3X3X3X3X3X3X3X3X3X<X3XXXu.N.j.NXNXhXhXhXhXhXsXrXwXrXrXrXrXrX3X<X3X3X3X3X3X3X<X3X3X3X3X3X3X3X3X3X+Xj.w.N.NXNXhXhXhXhXhXhX",
";XE.E.;X[.3.;X1.[.E.;X[ ;XE.+Xn l j.N.NX*.;XwX3.3X[ U.3XE.E.rX[.+XE.3.U.+XU.+XE.XX3.rX[ wXE.[.3XrX[.rX+Xn l a.l NXrX3.;XE.;XE.;X",
"E.+XE.+X3.E.E.[ +XE.[ E.+X+X*.n 7 j.j.hX;X*.+X3.+X+XE.+X) +X+.[ E.+X1.+X1.+X[ XX+XE.[ XXE.+X*.E.+X*.+X*.n l j.N.wX;X1.+XE.3.+X'.",
"*.XX+XE.[.[ +X3.U.E.[.[ +XE.*.n 9 f j.sX*.+XE.[.E.E.[ E.E.+.+XE.[ +XE.3.[ 1.U.E.+XW E.3.+X+.+X*.+X+X*.*.n 7 q.j.rX3.+X+X+X1.+X3.",
"+XE.E.+XU.1.3.E.3.+X[.) +X) *.X 3 l j.hX*.+X+X3.+X) E.+X[ *.XX[ U.+X3.E.3.+X[ +XE.W +X) +X*.E.*.+X*.+X*.n 7 l j.rX;X1.+X3.+X[.3.",
"+.+X[ +X*.E.3.[.[ +X[ E.+X+X*.n 9 a.N.hX;XW +X3.+XE.[ E.W U.*.[ +XE.3.U 3.+X[ E.U E.+X[ U.+X*.E.+X*.+X*.X - l j.;X3.+X+XW +X3.E.",
"*.;X[ *.G 3.*.[.*.[.*.W [.+.+.X 7 j.N.;X+X*.E.W *.[.*.E.[ *.E.W *.[.*.[.[ U.*.E.E.W [.*.+.E.G *.[.+.E.*.n   w.M.;X+X3.*.W *.[.*.",
"n G G S G G G G G G G G S n n n l j.N.+X) [ [ [ [ [ [ ) ) [ [ [ [ W W U U W W U W W W W W W W U W W W n n * j.f +X[ n ) n n [ n ",
", 7 9 * 9 9 9 - - - 9 9 9 - - 9 l j.f s.l i 9 7 9 , 9 9 a a l l a 9 9 7 - - - * - 9 7 9 - - @ - 9 9 9 9 3 l j.N.u.9 9 9 9 9 , 9 ",
"N.N.j.l l j.N.h N.h j.j.l l f l j.s.x.j.j.j.w.l q.h b l w.j.j.s.N.l N.j.w.l l a 0.w.j.j.N.w.l l w.j.j.j.N.s.N.l N.w.l q.b.j.j.u.",
"N.NXNXhXhXhXsXhXhXhX3X<X<X3X3X<X3X3X3X3X3X3X3X3X3X3X3X+Xj.N.N.NXNXhXhXsXhXhXhXsXhXhXhX3X<X3X3X3X3X3X3X3X3X3X3X3X3X3X<X3X3X<X+Xj.",
"N.bXE.;X3X1.<X3.3X3.;XE.;XU.;XrXE.;XE.;XE.3X;X) ;XwX*.n l j.M.NX3X+.hX+X;XE.+X;XE.;X[.;X3.[ +XE.*.E.+X3.E.+X[.E.+X3.E.+XW +Xn 7 ",
"l NX;XE.+X[.+X1.+.E.+X+XE.[.E.+XE.[ +X*.+XE.[ E.+X+.-XX 9 u.D.hX3X[.+X[ +X[ E.+.[.E.[ +X[ E.+X[ +X*.+X3.+XE.+X[ +X[.3.+X1.*.X 9 ",
"j.<X) XX+X+.E.W +X[ XX+.+XE.[.+X[ E.+X*.E.+XE.[ 3.+X*.n , N.J.hX3X3.+X3.+X[ +X*.[.+X3.+X3.+XE.[ +X*.*.+X[.*.[.E.+X+X3.+XW *.n 7 ",
"j.3X;XE.+XG +XW *.E.+XE.*.3.+X3.U.) 3.+X[ +XE.[ +X*.W n 9 N.D.sX*.+X*.[.E.[ E.[.*.+X[ E.[ E.+X3.E.*.E.3.+XU.+X) +X3.E.+X3.*.n 9 ",
"M.3X+.[ +XS U.3.+X[ +XW +X[ +XE.) E.+XE.[ +X) E.3.3.;Xn 9 u.N.hXrX+.+X*.+XE.+XU.+.+X[ +XU *.*.S XXG +XU +XG +XXXE.[ G *.E.*.n 9 ",
"j.rX+X) +.*.*.W *.G *.*.E.[ E.*.*.E.*.*.[ *.[.*.[.*.*.X 1 l M.rX+X*.[.*.E.W *.*.*.*.[ E.+.E.G +XW *.+XG *.U.S +XU +XG +X*.*.n 9 ",
"j.+X'.[ [ ) ) [ [ ) [ [ [ [ [ [ [ G G G G G S S G G X n 9 l N.XX[ [ [ [ [ [ [ ) [ [ [ [ [ [ W W W W W W W W W W W W n W 3.U n 9 ",
"j.j.l 9 9 9 9 7 9 9 3 9 , 9 9 9 9 9 , 9 l k l 7 3 9 9 9 9 j.j.t.9 9 9 9 9 9 9 9 - - - - - 9 l l l 9 * - - 9 9 9 9 9 9 9 9 9 9 9 ",
"N.N.N.N.M.j.j.l j.l l l j.N.H.H.N.N.N.j.j.j.9.w.l k w.l l w.N.j.j.j.N.l N.j.N.j.q.l w.f w.a.b.N.j.j.w.l w.j.a.j.M.a N.j.j.j.N.d ",
"3X3X3X3X3X3X3X3X3X3X+Xj.k N.hXhXhXhXhXhXsXhX3X3X3X<X3X3X3X3X3X3X3X3X3X3X3X<X3X+Xj.N.N.wXNXhXhXhXhXhXhXsXhXhX3X3X3X3X3X3X3X3X3X3X",
"XX;X+X;X[.rX;X;XrX+Xn l t.l sX+X) +X*.+X+X[ +XE.+X+X+.+XE.[ +X+X[ +X+X*.+X3.+Xn a j.N.hX+X3.+X*.+X+X) +X3.U.3.XX*.+XE.+X3.+X*.+X",
"+X3.E.+X[.+X3.+XU.+.n 9 s.N.sX[ +X3.E.+X3.+X[.*.+XE.E.*.E.E.+XE.[ XX*.E.+X[ +Xn l N.N.hX+XW +X*.+XE.[ +XE.+X3.U.E.[.*.[.3.[.E.*.",
"E.3.+X[.3.+X3.[.+X*.n 9 u.d hX[ +XXX3.[.+X*.+X*.+XU.XXW +XG E.E.+XE.+.'.+X1.+XX a N.K.hX+X3.+X*.+XE.+XE.+X+X3.+X*.[.E.+X[.3.+X+.",
"+XE.3.+X[.XX[.1.E.*.n l j.N.hX[.[ +X3.+X3.W [.U.E.E.*.E.+X[ +XE.[ E.[.+.E.+X3.n l N.K.sX3.+X+X+.+X[ +X+X3.1.+X3.+XE.[.[.E.3.*.E.",
"+XE.3.+X3.+X3.[.+X*.n l j.j.hX[ +X3.W [.+X*.E.E.+XE.+X*.E.G ) [.) +X[.*.+X3.XXX l j.N.rX+X1.+X+X*.XXE.E.3.+X1.+X*.[.E.+X3.E.+X+.",
"*.*.E.'.*.*.[.*.*.*.X l j.j.[.) +X+XW +X3.*.+X*.+X[ +XW E.) +XE.[ [.+.[.+X[ 1.n 9 j.N.rX+XW +X*.+X+XE.+XE.XX3.XX*.[.*.[.3.+X+X+.",
"n n G G G G G G G n n 9 j.j.+X[ [ [ [ [ [ [ ) [ W W W W U W U W W W W W W U n n 9 j.s.+X) [ [ [ [ [ ) [ ) [ ) [ [ [ [ W U W W n ",
", 3 9 9 9 9 1 9 , 7 9 7 j.N.t.9 # - - - 9 7 h l l 9 * - - - - 9 9 9 9 9 3 9 9 9 h j.j.j.9 7 9 9 k l j.a , 9 - - * 9 , 9 9 7 7 , ",
"c.t.N.l j.l l j.j.l l l a j.j.l l l j.j.j.j.j.N.N.j.s.a l l N.j.j.a.N.l j.l j.l j.u.N.j.M.a N.j.N.D.K.N.j.j.j.l N.j.N.j.x.l N.l ",
"l NXhXhXhXhXhXhXhX3X3X3X3X3X3X3X3X3X3X3X3X3X3X3X3X3X3X3X3X3X3X+Xl N.h NXNXhXhXhXhXhXhXhXhX3X<X3X3X3X3X3X3X<X3X3X3X<X3X<X3X3XXXj.",
"N.sX+XE.E.+X) +X+X3.[.+X3.+X*.E.+X[ XX3.+XE.+X[ +X[ +X+X3.*.XXn l j.N.NX+X+X) +X[ +XW +X*.+XW +XE.W [.E.*.+XE.3.+X3.[.+.E.+Xn 9 ",
"j.hX+X[ +XE.[ XXE.[.3.+X[ E.U +X[.[ XXW E.[.E.[ +X3.+X3.+X*.[.n 9 j.j.hXE.+X[ E.[ 1.W E.W [.3.+XW +X[ +X*.E.*.+XE.3.[.+X[ E.n 9 ",
"j.hXE.[ +X[ E.*.[ +X) XXE.1.E.XX[ [.E.E.W 3.+XS [.W E.) E.E.*.X 9 l j.hXE.+X[ [ E.+X3.W +X3.W [.+XW XX+.*.+X*.+X3.+X*.U.[ +Xn 9 ",
"l hX+XE.+XE.[ +XU.3.[.+X3.XXW E.+X) +XW E.+XW [.+X3.+X+X+X*.3.n 9 l j.hXXX[ +XE.[ +XW +X*.[.3.3.U U.[ +X3.E.'.E.[.3.*.+XE.+Xn 9 ",
"N.sX+X[ E.+X[ +X[ XX) +X[ +X+.+X[ [ +XW E.3.+X3.E.[ [.) E.*.+Xn - l N.hX+X[ ) XX) 3.U +XW +XU [.U +X[ E.*.+X+.3.+X3.[.E.[ *.n 9 ",
"k rX+X[ +X[ U.*.E.'.3.+XE.E.E.+X[.[ E.3.W [ +XG +X*.[.3.+X*.+XX - l N.rX*.+X[ E.[ +XW 1.+X3.U [.*.E.) +X*.+X*.+X3.[.*.+X[ +Xn 9 ",
"N.+X[ [ [ [ ) [ ) [ [ G G S G G G G G G G G G G G G G G G G G n 9 j.N.+X[ [ [ ) ) [ [ [ [ U W W W W G G G S G S G G G G S n n 7 ",
"g j.9 7 3 9 9 9 9 6 9 1 l l l 9 - - - - 9 9 9 + - - * 9 9 $   9 9 j.l s.9 3 9 9 9 9 - * - 9 a l a 9 - 9 7 9 9 $ * # 9 9 7 9 9 1 ",
"N.l N.l N.a.N.j.u.j.j.N.K.J.N.j.N.l N.j.N.j.w.l l l w.j.M.j.j.a a.a.N.l N.s.j.j.j.j.j.t.s.l.N.N.N.l.j.j.j.j.l 9 - - i l j.j.N.j.",
"hXhXhXhXsX3X3X3X3X3X3X3X<X3X3X3X3X+Xt.N.j.NXNXhXhXhXhXhXsXhXhX3X3X3X3X3X3X3X3X3X3X3X3X3X3X3X+Xj.l N.NXhXhXhXhXhX3X3X<X3X3X3X3X3X",
"1.+XW +X+X) '.[ +X3.rX3.+X[ +X1.+Xn 9 a.j.hXXX+X+X+X) +XS +X3.+X) XX[ XX[.XX[ +X[ +XU +X*.[ n l j.N.hX+X[ E.+XW +X*.+X*.+X[ +X*.",
"+X3.3.+X3.+X[ [.3.[ +XW 1.[ E.[ E.n 9 j.j.hX3.+X*.+X[ *.G 3.[.3.+XE.[ U.[.) 3.E.*.E.W +X[ +Xn a t.N.hX[ +XW +X*.XX+.E.+X*.+XE.G ",
"+X3.W 3.+X[ [.[ 3.+X3.W +XE.[ [.1.X 9 u.w.hX3.3.*.+X[ 3.3.+XW +XG +X+X[ +X[ +X[ E.W E.E.[ *.n 9 t.N.hX[ +X*.*.+X+XE.*.E.*.[ *.E.",
"3.[.W [.[ ) +X) +X1.+XW 3.*.[ +X[ n 9 j.w.hX+XS +.+X[ +XG XX3.[.) +X[ E.1.[ +X[ +XE.W *.[.[ n 9 a.N.hXXX) W +XE.*.*.+X*.+X) *.+X",
"[ +X3.+X[ +X[ E.+X[ +X1.W E.+X3.E.n 3 j.w.hXG +X+X) +X1.+.E.U 3.G +X[ +X[ 3.3.[ E.*.W E.*.[ n 9 j.j.hX[ +XE.+X*.+XE.*.*.W +X*.+X",
"[ +X3.3.[ [.[.[ [.[ 1.U +X[ +X) [.n 9 a.j.hXS +X+.+X) 3.3.E.G [.[ E.G +X3.[ +XE.) +XW +XW E.n 9 l u.hX[ XXU *.W +X*.+X*.U [ +XG ",
"3.[.W +X[ [ E.[ 3.3.+XW +X[ *.E.3.n 9 s.N.rX+XG *.+X[ +XS E.[ +X[ +X*.[ +X[ 3.+X[ E.*.E.[ E.n 9 l s.rX) [ W +XW +X*.XX*.+X[ +X*.",
"G S G G G G G G G G G G S G G G n n , j.u.+Xn n X X n G G G G G G G G S G G S G G G G G G n n - j.N.XXX X S G S G G G G G S G G ",
"9 9 9 9 , 9 9 7 9 9 9 9 9 9 9 3 3 9 9 j.z.s.l a a 9 9 9 9 9 9 9 9 9 9 9 9 9 9 $ - - - - 9 - -   k j.j.7 9 9 5 7 9 - - - $ - 9 9 ",
"l N.l N.l h l j.j.j.j.j.N.N.f j.a.j.j.N.N.N.b.N.j.j.j.N.j.j.s.b.t.j.k j.j.u.w.h k w.l l w.u.w.l w.N.j.j.l N.s.s.j.u.w.l w.j.j.j.",
"N.c.b.N.z.N.N.N.N.N.N.N.b.M.M.N.N.N.N.N.N.N.N.N.N.N.N.b.N.N.N.N.N.N.N.N.N.N.N.M.b.N.N.N.N.z.N.N.c.N.N.N.N.b.N.N.N.M.N.N.N.M.N.z."
};
