/* XPM */
static char *fc15fb3497764c9ca63daf50051f5e8e7IfldXMbDS308cxx[] = {
/* columns rows colors chars-per-pixel */
"64 64 134 2 ",
"   c gray12",
".  c #201F1D",
"X  c #1E201E",
"o  c #363F01",
"O  c #393F01",
"+  c #21201E",
"@  c #1F1F21",
"#  c #221F21",
"$  c #1F2120",
"%  c #202020",
"&  c #2C2C2C",
"*  c #302C2D",
"=  c #363636",
"-  c #383735",
";  c #363835",
":  c #393836",
">  c #373739",
",  c #393738",
"<  c #373938",
"1  c #383838",
"2  c #374001",
"3  c #394101",
"4  c #3F4A01",
"5  c #3E403F",
"6  c #414C00",
"7  c #4B5600",
"8  c #4B5800",
"9  c #576301",
"0  c #586400",
"q  c #5E6D01",
"w  c #626F01",
"e  c #627001",
"r  c #6C7C00",
"t  c #707C00",
"y  c #40403E",
"u  c #3F3F41",
"i  c #3F4140",
"p  c #434343",
"a  c #464845",
"s  c #494846",
"d  c #474749",
"f  c #494748",
"g  c #474948",
"h  c #484848",
"j  c #545454",
"k  c #5D5C5D",
"l  c #656464",
"z  c #676568",
"x  c #768701",
"c  c #7B8702",
"v  c #768800",
"b  c #798900",
"n  c #839700",
"m  c #869900",
"M  c #859A00",
"N  c #859A01",
"B  c #869B02",
"V  c #849900",
"C  c #849900",
"Z  c #8DA200",
"A  c #8DA300",
"S  c #8EA300",
"D  c #8EA202",
"F  c #8BA400",
"G  c #8CA501",
"H  c #8FA400",
"J  c #8EA500",
"K  c #8EA401",
"L  c #8FA401",
"P  c #8FA600",
"I  c #8FA502",
"U  c #8EA403",
"Y  c #8DA602",
"T  c #8EA401",
"R  c #90A500",
"E  c #90A701",
"W  c #90A501",
"Q  c #98AF00",
"!  c #9BAF00",
"~  c #99AF02",
"^  c #9BAF00",
"/  c #98B000",
"(  c #99B000",
")  c #9AB101",
"_  c #99B000",
"`  c #A1B900",
"'  c #A1B901",
"]  c #A2BA00",
"[  c #A2BB00",
"{  c #A3BB01",
"}  c #A4BA00",
"|  c #A5BB00",
" . c #A3BC00",
".. c #A4BD01",
"X. c #A5BE00",
"o. c #A5BE02",
"O. c #A3BC00",
"+. c #ACC700",
"@. c #AFC701",
"#. c #AFC700",
"$. c #ADC800",
"%. c #ACC900",
"&. c #ADC801",
"*. c #AEC900",
"=. c #AFCA00",
"-. c #AEC900",
";. c #B1CA00",
":. c #B6D300",
">. c #B7D302",
",. c #B6D400",
"<. c #B7D400",
"1. c #B7D501",
"2. c #B7D600",
"3. c #B7D400",
"4. c #B9D300",
"5. c #B8D201",
"6. c #B9D302",
"7. c #B8D500",
"8. c #B8D501",
"9. c #BAD400",
"0. c #B9D600",
"q. c #B9D400",
"w. c #C4E000",
"e. c #C5E100",
"r. c #C5E101",
"t. c #CDEB01",
"y. c #CFEB00",
"u. c #CEEC00",
"i. c #CFED00",
"p. c #CFED01",
"a. c #CEEC02",
"s. c #CFEC00",
"d. c #D0EE00",
"f. c #D0EE00",
/* pixels */
"1 > < ; 1 1 1 1 , 1 < 1 1 1 ; 1 1 1 1 1 : , 1 1 1 > 1 1 1 1 1 1 , 1 1 1 1 > > 1 1 1 1 > 1 1 1 1 1 1 1 1 1 1 1 > 1 1 1 1 1 1 1 > ",
"j 1 j h h h h h j h h h h d h j h 1 h h h h h h h j j j j j j d d h h s s h h h j j j j j j j h h h h > 1 , h h j j h d h h h 1 ",
": u.u.<.:.<.<.<.<.<.<.<.G h h j u.u.<.<.4.4.<.<.<.<.<.<.<.<.<.<.<.4.9.<.G h 1 j t.t.u.u.w.w.w.w.w.w.<.<.:.<.<.+.$.$.$. . . .G a ",
"f u.$.( ( <.v G <.v $.G 0 & h j u. .x ..v  .x ..r  .V  .V  .r  .r ..$.G e & h 1 <.G $.( $.( ( $.e $.r $.( $.v ( G r $.V $.G r & ",
"h <.G r G v G V e G b w 0 & h j <. .v v G v w G G w V G G e V G e G V q 8 & h j 9.G G r 0 G v e x G r v G G v G r v G 7 G e 9 & ",
"h 9.r G G e V G G e G 8 3 & h j 9.v | G v G e G v G e G e x r G e V r e 8 & s h <.e G 0 v G 0 S e G r G c G 0 G V r G r G w 6 & ",
"h $.G r x n r G e v G e 2 & s j [  .b G c v V G q v e G b e V r v w G w 2 & 1 h  .e G r G x 0 G e e G G e S b G G r G 8 S v 6 & ",
"h ..r G G e R V e V e 7 2 & h h  .$.v G e G w G e G e V v w r G w V r e 8 & : h  .n S 9 v S r v e v r R v G 0 G r v G r G e 2 & ",
"h ..G w v 8 e r 8 e v e 2 & 1 j V V e e 6 v e e v e 6 e v e v e 6 b e e 2 & 1 h  .e e 7 e e 6 b 6 e 8 v 4 e 6 v 0 6 e v e v 2 & ",
"d r 9 0 0 2 2 3 2 3 2 2 2 & 1 h r 0 0 8 8 8 7 8 8 8 8 8 3 o 2 2 o 2 2 o 2 & 1 d v 0 0 0 0 0 0 0 0 0 0 8 8 8 8 8 8 8 7 8 2 2 3 & ",
"s a & & & & & & & & @ . % & 1 j h & & & & & % % + % % & & % % @   & & & & & h j : & & & & & & & & & & & % % % @ % & & & & & & & ",
"j 1 1 < 1 h h h h 1 1 < > : h 1 h h s h h a h 1 > 1 j h h h > 1 h s h h h h j 1 h j j j j k z l k j j h h p 1 p j 1 j h a h j 1 ",
"t.<.<.<. . .[  . . . . .[  . .S h j h u.d.<.<.<.<.9.<.+.$.$.$.$.$.$. .[  . . . ...[ [  . . . . . . . . .G h i j u.u.<.:.<.<.<.<.",
"( v x ( V r ( r V v ! 0 ( c G 2 1 h j u.e ( $.r [ 9 v ..b v $.V G v r v G x G v G r $.0 $.b V  .$.V $.R 3 1 s 1 u.$.r ( v ( x ! ",
"v G b G r v v 0 G v 0 v G G w 2 & h h <.! e G r G G v G 0 G w 0 v G r G r G 0 S G v 0 G v G e v G e G e 2 1 h j $.( r G v r G V ",
"e S G v V 0 G r x v V 0 G v w 2 & ; h <.w G v V v b 0 v v e G v 0 G v r 0 r v b G 8 v r G e G e G G e e 3 & u h $.r G G G r G r ",
"G v v S x r r v r G V 9 G 9 e o & 1 h <.e G G r G 0 b G 0 e S 0 x G r x r G 0 G v 8 G 0 G w v e G e G e o & < h $.( r S r G V r ",
"q G 0 G e v r V 0 G 0 v G G e 2 & s j <.( 8 G r G v 0 v 8 x e 0 G v r 7 r G 0 v 7 v G 0 x G e v G e G e 3 % 1 h ( r G G 8 G r v ",
"e ( 0 e 6 r e V w V w 7 V w w o & h j ( G e v 7 e V e v 0 e v 8 e V e V 0 x e v v 8 V e e v 6 e V q v w 3   p j ( G r w 8 e V e ",
"2 6 6 4 6 6 6 6 6 6 6 6 6 2 2 o 1 h j G 9 0 0 0 0 0 0 0 9 0 0 0 0 8 7 7 7 8 8 7 8 7 8 8 8 7 7 8 8 8 8 2 2 % h ; G 0 o 9 2 2 0 2 ",
"& & & @ & & & % $ % & & & % % & 1 h ; f 1 = & & & & & & > > 1 1 > & & &   % % % % & & & % % % % & & & & & 1 h j a & & & & & & & ",
"j j d 1 : h j - j : h h 1 1 ; > h d j h d h p 1 p : 1 , p f h d j 1 j h p 1 1 > p p h s j p 1 1 p h h h j h j : j p 1 p j h d a ",
"j u.u.<.<.4.<.<.:.<. .[ [  . . . . . ... . . . . . . .G h j j u.u.9.9.4.<.<.<.<.<.<.<. . . . . ... . . . . ... .|  .[  . .| G h ",
"j u.v (  .r  .r  .r ( v ! x ( $.v ( v ( v  .! 9 ( $.e o : h j d. .e <.G ( x G ( v ( V ( r 9 F v e v G r v G V v G r v G 8 G 2 & ",
"1 u.( v G V G r q v G G v V v S v 0 G e G v 0 v G q ( 2 & a k <...V G 0 G 0 b w V v 0 G 9 b G 0 G w G r G v R 0 G V r G r e o & ",
"h  .9 S G w v 8 G 9 S w G v V G 9 v G e b G v 0 r S w 2 & j l <. .r G r G 0 G e V G r G r G v 0 G e e G V e V v G G r G 8 e 2 & ",
"h  .( v R 6 G 8 e v G x w r G r v 9 r G 0 G v 0 G e 8 2 & j k <.e S e V v 0 v V e G 0 v 0 v G r v w v r G v G 9 G r v G r e 3 & ",
"j ..q 0 G 4 x r G 0 G 8 G 0 G v 0 v G v 0 G 0 x r r ( 2 & a j <.$.w G e G x G v w G 0 G 8 w e 6 S 6 G 7 G 6 G S v 0 6 e v e 3 & ",
"h $.G 9 e e e 8 e 6 e e b 0 v e e v e e 9 e V e V e e o & 1 j +.G e V e v 8 e e e e 0 v q b 6 G 8 e G 6 w x 6 G 8 G 6 G w e 3 & ",
"d G n 0 0 0 9 0 0 0 0 0 0 0 0 0 0 6 6 6 6 6 6 6 6 6 2 3 & 1 j S 0 0 0 0 0 0 0 9 0 0 0 0 0 9 8 8 8 8 8 8 8 8 8 8 8 8 2 8 r 8 2 & ",
"h h 1 & & & & & & & & & & & & & & & & & 1 > 1 & & & & & & h h d & & & & & & & & % % % % % & 1 1 1 & % % % & & & & & & & & & & & ",
"j j j j j h d 1 h 1 1 1 d j l l j j j d h h 5 i 1 , p 1 1 p j h d h j 1 j d j h p 1 p 1 p h j j h f p 1 i h s h j > j s h h j > ",
"[  . . . . .[ .... .R h > j 9.9.9.4.<.<.<.9. . ... . . . . . . . . . .[ ..[  .S h j j $.u.<.:.9.9.9.9.4.:.<...[  . ... . . . ...",
"S ( G ! V $.( ( $.G 2 1 d > <.R 9 G e G G 0 S v G G w G v 0 G G 0 G G w G r G 3 1 h j <.G r S e G G 9 G r v r R e G v G r G w G ",
"G r v G V S r G x e 2 & h j 4.0 G r v G r G V e G v v e v v G v 0 S e v G 0 G 2 1 j j <.G 8 G e G b 0 G b G r x v V e V r V v w ",
"b r G V r G r V G e 2 & h > 4.0 G S r V G e S e G x S 8 G 6 v v G v w V R r G o > j l <.G r G e G v G v G G r G w V b G V r G e ",
"G v r R V S V r v w 2 1 h j 9.V 0 G r G r 7 V v x v e v G 0 G v 9 v V e v G r o 1 j l <.r G G w G 0 G G r r G r G v V V v r e v ",
"G v r G r G r V G w 2 < h h <.9 G r 8 V G e v v G v G e v 6 9 V 9 G V w G r S o < h j +.G r G G e G b x r S r G e V v G r b G q ",
"e e v V e e V e e w o 1 d h V 9 G G 7 G r e G e G 0 G 7 v 0 G v 0 V w V G 0 r 2 & h j $.S 7 G e G G x G v S r S e V e V r G G q ",
"2 2 6 6 6 6 6 6 6 o o & h h G 0 0 0 0 0 0 0 0 0 8 8 8 8 7 7 8 8 8 7 8 8 8 7 o o & h f G 0 0 0 0 0 0 0 0 9 0 0 0 0 0 0 8 8 8 8 3 ",
"& & & & & & & & & & & & h j h & X % % % & & 1 1 1 & @ % % % % & & & & & & & & & : h h h & & & & > 1 h > & & % % @ & & & & & & & ",
"j d j > h 1 1 h h 1 1 1 > d h 1 1 1 h h h h h j j h h > 1 1 j h h s j 1 a 1 h 1 h a j h j > j h j k l j h h h 1 j h j h j : j 1 ",
"1 u.<.<.4.4.9.<.<... . . . . ..... . . . ... . . . . . . . . .G 1 j : u.u.<.<.<.4.<.<.<.<. .[  . .|  .[ .. . . . .[ ..[ .. .S h ",
"j 4.G v v R 9 G G t V G r G e v G 0 S r G v G 0 G 0 G G r e G 2 1 h j t.G G 0 G 0 G 7 G e G 8 G v 8 V v e G v r G r V q v G o & ",
"h 4.G 0 G v 0 G v V r G 0 v 8 G V 0 G 8 v V v 0 G r G r G w V 2 & h h <.v G 0 v 0 r 7 b 8 V r G 7 U 0 G e v w G b r V G 9 v 2 & ",
"h <.v 0 G 0 v e 0 G 9 S v r v S 0 V b c 8 r G 6 V 8 v 0 x v w o & 1 f <.b G 0 0 v G r 8 G r 8 V G 8 S e w G w G r G e x 0 G 2 & ",
"1 9.G x G v 0 G v r V G r G 8 x G 0 G 8 b G 8 V G r R G G e r 3 & 1 h <.S 0 G x 0 G 8 G e V r r 8 x 0 G r v n v V r e G v G O & ",
"j <.G 0 v G 0 G 0 G 0 G 0 G q G 0 0 G 8 v r G r v 0 V 9 b e G 2 % 1 j 4.G 0 9 G 0 r 7 G 8 G 7 V 8 G 0 v e G e r G r V v 0 e o & ",
"> $.R 0 G 0 x e v n r G v v x G V 0 v r 8 9 G 6 G e V r G e G o   1 j $.e R 0 v 0 G 7 r G r 7 V e v 9 G e G w G r V e G 0 G 2 & ",
"j G 0 0 0 0 9 0 9 0 0 6 6 6 6 6 6 6 6 6 6 6 6 6 6 6 6 6 6 6 6 2 & h j G 0 0 0 9 9 0 0 0 0 7 8 8 7 8 6 6 6 6 6 4 6 6 6 6 6 2 3 & ",
", h & & & & & & & & & & > 1 1 & X % % % & & & + % # @ & & +   & & d : d & & & & & & % @ % & = 1 > & % & & & & # % X & & & & & & ",
"j < j 1 j s j s a s a j l l j h j 1 j h j h p < 1 : p h j h h ; s h j 1 j h h h h d h d d h j j j h d h h a 1 & % % = 1 h f j h ",
"<.<.<.<.<. . . ... . . .[  . . ...G d j h d.u.<.<.9.9.<.:.<.<.[ [  . . ...[  ... . . ... . .G h 1 j d.<.<.<.<.4. . .[  ... . . .",
"r G 8 G G 0 n 0 G r $.r G 0 G r G 2 & h f 4.G G G G 9 G 6 G r G 9 S 0 G V G 0 G 0 G 8 G e 0 2 1 h j <.G 0 v G 7 G e R e G 0 G e ",
"G r r G r G 0 V r 0 G 7 r 0 v 9 v 2 & h h 9.r G e G 0 e 6 r V r G v 0 v V 9 r x e v 8 G 0 G 2 > d j <.9 G 8 G w S q x G e G v 6 ",
"G r 8 r G 0 V 0 r G r 8 G b 0 V r 2 & a y <.r r e S 0 r r G 8 G 6 G G 0 G 0 G 0 v 8 v v 0 w 2 & h j 9.0 G e e G G b e v e 0 e v ",
"r V 8 V 0 9 G 9 G r G 7 r e 0 G 0 2 & h p 9.G 6 w G 0 G 6 S r V 0 G 0 v r 0 G 0 G v 8 w V 0 2 & s j <.S 9 8 G v e e G e G 9 e G ",
"9 G r G 0 G 0 v G 0 G r 8 v G r v 2 & h p <.6 G R 0 G r w v 7 r 6 G 0 G 9 r r 0 v e 8 b w 0 3 & h d <.0 G v G e G v e w 8 G e G ",
"0 G r r 0 V V 0 V 0 r 7 G 0 G 9 V 2 & s h <.6 G w G 9 r r b 6 V 0 v 6 G r 0 G v 0 G 8 G 8 x 3 & 1 a <.9 G 7 e 8 R e G e 8 0 G 6 ",
"r V 8 G 0 0 v 0 r r G 8 G 0 e x r 2 & d j ;.G 6 e G 0 G 4 x 0 G 0 R e 0 G 0 r G 0 v e b 0 v 2 & 1 h $.0 0 8 G 7 G e R e G 9 G e ",
"6 6 6 6 6 6 6 6 6 6 6 6 4 6 6 6 2 3 & h h G o 2 O 2 2 6 6 6 6 6 6 6 6 6 6 6 6 6 6 6 6 6 6 3 3 % h j S o 2 6 6 4 6 6 6 6 6 6 6 6 ",
"& & & & & & & & & & & & & & & & & & & f j d 1 > > & & & * & & & & & & & & & & + % % $ # & + % % > h h & & & & & & % % % + % & & ",
", j 1 j 1 : : h h d h h j j ; d h d d j j j j j h h h j d h f j d d > d h a p 1 1 p ; 1 p a p 1 p j h d 1 j h h h a p 1 p h h d ",
"j j j j j j j j j j j j j j j j j j j j j j j j j j j j j j j j j j j j j j j j j j j j j j j j j j j j j j j j j j j j j j j j "
};
